<svg width="0" height="0" style="position:absolute"><symbol viewBox="0 0 451.847 451.847" id="arrow-down-sign-to-navigate" xmlns="http://www.w3.org/2000/svg"><path d="M225.923 354.706c-8.098 0-16.195-3.092-22.369-9.263L9.27 151.157c-12.359-12.359-12.359-32.397 0-44.751 12.354-12.354 32.388-12.354 44.748 0l171.905 171.915 171.906-171.909c12.359-12.354 32.391-12.354 44.744 0 12.365 12.354 12.365 32.392 0 44.751L248.292 345.449c-6.177 6.172-14.274 9.257-22.369 9.257z"/></symbol><symbol viewBox="0 0 31.494 31.494" id="left-arrow" xmlns="http://www.w3.org/2000/svg"><path d="M10.273 5.009a1.112 1.112 0 011.587 0 1.12 1.12 0 010 1.571l-8.047 8.047h26.554c.619 0 1.127.492 1.127 1.111s-.508 1.127-1.127 1.127H3.813l8.047 8.032c.429.444.429 1.159 0 1.587a1.112 1.112 0 01-1.587 0L.321 16.532a1.12 1.12 0 010-1.571l9.952-9.952z"/></symbol><symbol viewBox="0 0 512 512" id="satellite-dish" xmlns="http://www.w3.org/2000/svg"><path d="M364.805 188.172L240.681 79.567l30.65-35.03L395.456 153.14z"/><path d="M147.198 188.181l-30.65-35.03L240.673 44.546l30.65 35.03z"/><circle cx="256" cy="46.545" r="46.545"/><path d="M256 0c25.705 0 46.545 20.84 46.545 46.545S281.705 93.091 256 93.091M341.333 465.455v-23.273c0-47.129-38.204-85.333-85.333-85.333s-85.333 38.204-85.333 85.333v23.273H85.333V512h341.333v-46.545h-85.333z"/><path d="M341.333 465.455v-23.273c0-47.129-38.204-85.333-85.333-85.333V512h170.667v-46.545h-85.334z"/><circle cx="256" cy="442.182" r="23.273"/><path d="M7.758 139.639c0 137.106 111.142 248.24 248.242 248.24 137.103 0 248.242-111.133 248.242-248.239H7.758z"/><path d="M256 139.639v248.239c137.103 0 248.242-111.133 248.242-248.239H256z"/></symbol></svg>