<?xml version="1.0" standalone="no"?>
<!DOCTYPE svg PUBLIC "-//W3C//DTD SVG 20010904//EN"
 "http://www.w3.org/TR/2001/REC-SVG-20010904/DTD/svg10.dtd">
<svg version="1.0" xmlns="http://www.w3.org/2000/svg"
 width="217.000000pt" height="217.000000pt" viewBox="0 0 217.000000 217.000000"
 preserveAspectRatio="xMidYMid meet">
<metadata>
Created by potrace 1.15, written by Peter Selinger 2001-2017
</metadata>
<g transform="translate(0.000000,217.000000) scale(0.100000,-0.100000)"
fill="#000000" stroke="none">
<path d="M630 2156 c-239 -51 -429 -194 -539 -405 -99 -190 -116 -398 -50
-603 l20 -63 -28 -95 c-37 -129 -39 -304 -5 -423 69 -239 232 -423 457 -514
116 -47 169 -55 324 -51 115 3 147 8 208 30 l72 26 68 -26 c64 -25 78 -27 243
-27 173 0 176 1 258 32 253 97 433 298 493 551 29 121 23 313 -13 420 l-24 72
24 73 c36 105 43 310 14 425 -37 144 -105 263 -208 364 -107 104 -203 161
-341 200 -121 35 -296 32 -423 -6 l-95 -28 -85 27 c-105 33 -269 42 -370 21z
m310 -71 c36 -9 108 -37 160 -62 91 -45 104 -55 286 -237 117 -118 198 -206
209 -230 40 -90 28 -175 -38 -258 l-39 -50 -252 249 c-219 218 -259 253 -313
276 -87 38 -158 50 -233 38 -172 -28 -302 -145 -354 -319 -13 -45 -30 -68
-107 -145 -50 -51 -105 -114 -122 -141 l-32 -48 -14 43 c-10 30 -15 90 -15
189 0 130 2 153 26 223 82 244 285 425 533 477 67 13 236 11 305 -5z m682 -18
c224 -77 398 -260 464 -487 28 -98 26 -279 -5 -387 -39 -139 -93 -216 -285
-411 -133 -134 -184 -179 -230 -202 -97 -49 -183 -36 -270 40 l-37 33 239 241
c131 133 251 261 265 286 59 104 73 233 36 342 -46 139 -160 246 -295 279 -42
10 -65 27 -154 113 -58 56 -122 112 -143 125 -21 13 -36 25 -34 27 2 2 30 10
63 19 41 10 97 14 184 11 104 -2 138 -7 202 -29z m-694 -353 c46 -21 106 -76
299 -268 l243 -240 -37 -38 -37 -38 -251 249 c-201 201 -261 255 -305 275
-114 53 -245 25 -349 -76 l-45 -42 20 34 c44 77 137 148 228 171 59 16 174 2
234 -27z m742 -90 c89 -102 108 -261 48 -392 -16 -34 -89 -115 -262 -289
l-239 -243 -42 38 -42 37 242 245 c134 135 254 263 268 286 71 115 52 247 -54
369 l-44 49 46 -31 c25 -18 61 -49 79 -69z m-858 -28 c20 -10 54 -33 75 -51
l38 -34 -252 -253 c-211 -212 -256 -262 -277 -309 -74 -169 -46 -337 79 -468
57 -60 147 -112 214 -125 26 -5 61 -32 140 -109 58 -57 124 -114 145 -127 l40
-24 -50 -14 c-66 -19 -283 -21 -354 -4 -30 8 -98 34 -150 59 -82 39 -107 58
-185 137 -152 153 -212 308 -203 525 10 233 66 337 317 587 195 194 261 239
341 232 25 -3 62 -12 82 -22z m198 -171 l34 -35 -107 -108 c-329 -331 -386
-392 -414 -449 -56 -116 -32 -238 70 -351 l42 -46 -35 24 c-126 85 -188 202
-178 334 10 123 27 147 297 419 135 136 248 247 251 247 3 0 21 -16 40 -35z
m213 -213 l127 -127 -130 -130 -130 -130 -130 130 -130 130 127 127 c70 71
130 128 133 128 3 0 63 -57 133 -128z m-189 -426 c196 -196 256 -249 303 -272
111 -55 230 -33 343 63 l44 38 -19 -34 c-24 -41 -97 -106 -146 -132 -88 -44
-232 -43 -324 3 -23 12 -143 123 -285 264 l-245 244 37 35 c21 19 40 35 43 35
2 0 115 -110 249 -244z m1066 91 c55 -341 -151 -674 -485 -784 -71 -23 -96
-26 -215 -26 -119 0 -144 3 -215 26 -137 45 -194 86 -391 280 -203 199 -234
244 -234 335 0 56 27 121 74 177 l25 30 243 -241 c134 -133 257 -250 273 -262
86 -58 237 -78 346 -46 140 42 249 157 289 304 10 35 33 66 110 147 55 56 109
120 122 142 22 39 23 39 34 18 7 -12 17 -57 24 -100z"/>
</g>
</svg>
