<svg xmlns="http://www.w3.org/2000/svg" width="14" height="15" viewBox="0 0 14 15">
  <metadata><?xpacket begin="﻿" id="W5M0MpCehiHzreSzNTczkc9d"?>
<x:xmpmeta xmlns:x="adobe:ns:meta/" x:xmptk="Adobe XMP Core 5.6-c142 79.160924, 2017/07/13-01:06:39        ">
   <rdf:RDF xmlns:rdf="http://www.w3.org/1999/02/22-rdf-syntax-ns#">
      <rdf:Description rdf:about=""/>
   </rdf:RDF>
</x:xmpmeta>
                                                                                                    
                                                                                                    
                                                                                                    
                                                                                                    
                                                                                                    
                                                                                                    
                                                                                                    
                                                                                                    
                                                                                                    
                                                                                                    
                                                                                                    
                                                                                                    
                                                                                                    
                                                                                                    
                                                                                                    
                                                                                                    
                                                                                                    
                                                                                                    
                                                                                                    
                                                                                                    
                           
<?xpacket end="w"?></metadata>
<defs>
    <style>
      .cls-1 {
        fill: #fff;
        fill-rule: evenodd;
      }
    </style>
  </defs>
  <path id="phone" class="cls-1" d="M991.865,18.009c0.887-.168,1.468.829,1.91,1.518a3.064,3.064,0,0,1,.747,2.324,2.2,2.2,0,0,1-.9,1.041,2.506,2.506,0,0,0-.954.983,2.479,2.479,0,0,0,.506,1.877,10.753,10.753,0,0,0,2.3,2.59,2.316,2.316,0,0,0,1.73.746c0.951-.193,1.2-1.363,2.239-1.52a2.808,2.808,0,0,1,2.214,1.043c0.53,0.463,1.4,1.056,1.34,1.849a1.608,1.608,0,0,1-.72,1.012,8.768,8.768,0,0,1-.92.8,4.786,4.786,0,0,1-2.81.716,5.959,5.959,0,0,1-2.686-.8A13.944,13.944,0,0,1,992.045,29a13.136,13.136,0,0,1-2.686-4.317,5.482,5.482,0,0,1,.806-5.392,8.158,8.158,0,0,1,.775-0.686A2.065,2.065,0,0,1,991.865,18.009Z" transform="translate(-989 -18)"/>
</svg>
