<?xml version="1.0" encoding="utf-8"?><svg width="323" height="290" viewBox="0 0 323 290" xmlns="http://www.w3.org/2000/svg" xmlns:xlink="http://www.w3.org/1999/xlink"><svg version="1.0" width="25.333" height="22.667" viewBox="0 0 19 17" id="case" x="289.333" y="65.333" xmlns="http://www.w3.org/2000/svg"/><svg version="1.0" width="289.333" height="289.333" viewBox="0 0 217 217" id="logo" xmlns="http://www.w3.org/2000/svg"><path d="M63 1.4C39.1 6.5 20.1 20.8 9.1 41.9c-9.9 19-11.6 39.8-5 60.3l2 6.3-2.8 9.5c-3.7 12.9-3.9 30.4-.5 42.3 6.9 23.9 23.2 42.3 45.7 51.4 11.6 4.7 16.9 5.5 32.4 5.1 11.5-.3 14.7-.8 20.8-3l7.2-2.6 6.8 2.6c6.4 2.5 7.8 2.7 24.3 2.7 17.3 0 17.6-.1 25.8-3.2 25.3-9.7 43.3-29.8 49.3-55.1 2.9-12.1 2.3-31.3-1.3-42l-2.4-7.2 2.4-7.3c3.6-10.5 4.3-31 1.4-42.5-3.7-14.4-10.5-26.3-20.8-36.4-10.7-10.4-20.3-16.1-34.1-20-12.1-3.5-29.6-3.2-42.3.6l-9.5 2.8-8.5-2.7C89.5.2 73.1-.7 63 1.4zm31 7.1c3.6.9 10.8 3.7 16 6.2 9.1 4.5 10.4 5.5 28.6 23.7 11.7 11.8 19.8 20.6 20.9 23 4 9 2.8 17.5-3.8 25.8l-3.9 5-25.2-24.9C104.7 45.5 100.7 42 95.3 39.7c-8.7-3.8-15.8-5-23.3-3.8-17.2 2.8-30.2 14.5-35.4 31.9-1.3 4.5-3 6.8-10.7 14.5-5 5.1-10.5 11.4-12.2 14.1l-3.2 4.8-1.4-4.3c-1-3-1.5-9-1.5-18.9 0-13 .2-15.3 2.6-22.3C18.4 31.3 38.7 13.2 63.5 8c6.7-1.3 23.6-1.1 30.5.5zm68.2 1.8c22.4 7.7 39.8 26 46.4 48.7 2.8 9.8 2.6 27.9-.5 38.7-3.9 13.9-9.3 21.6-28.5 41.1-13.3 13.4-18.4 17.9-23 20.2-9.7 4.9-18.3 3.6-27-4l-3.7-3.3 23.9-24.1c13.1-13.3 25.1-26.1 26.5-28.6 5.9-10.4 7.3-23.3 3.6-34.2-4.6-13.9-16-24.6-29.5-27.9-4.2-1-6.5-2.7-15.4-11.3-5.8-5.6-12.2-11.2-14.3-12.5-2.1-1.3-3.6-2.5-3.4-2.7.2-.2 3-1 6.3-1.9 4.1-1 9.7-1.4 18.4-1.1 10.4.2 13.8.7 20.2 2.9zM92.8 45.6c4.6 2.1 10.6 7.6 29.9 26.8l24.3 24-3.7 3.8-3.7 3.8-25.1-24.9C94.4 59 88.4 53.6 84 51.6c-11.4-5.3-24.5-2.5-34.9 7.6l-4.5 4.2 2-3.4c4.4-7.7 13.7-14.8 22.8-17.1 5.9-1.6 17.4-.2 23.4 2.7zm74.2 9c8.9 10.2 10.8 26.1 4.8 39.2-1.6 3.4-8.9 11.5-26.2 28.9L121.7 147l-4.2-3.8-4.2-3.7 24.2-24.5c13.4-13.5 25.4-26.3 26.8-28.6 7.1-11.5 5.2-24.7-5.4-36.9l-4.4-4.9 4.6 3.1c2.5 1.8 6.1 4.9 7.9 6.9zm-85.8 2.8c2 1 5.4 3.3 7.5 5.1l3.8 3.4-25.2 25.3c-21.1 21.2-25.6 26.2-27.7 30.9-7.4 16.9-4.6 33.7 7.9 46.8 5.7 6 14.7 11.2 21.4 12.5 2.6.5 6.1 3.2 14 10.9 5.8 5.7 12.4 11.4 14.5 12.7l4 2.4-5 1.4c-6.6 1.9-28.3 2.1-35.4.4-3-.8-9.8-3.4-15-5.9-8.2-3.9-10.7-5.8-18.5-13.7-15.2-15.3-21.2-30.8-20.3-52.5 1-23.3 6.6-33.7 31.7-58.7C58.4 59 65 54.5 73 55.2c2.5.3 6.2 1.2 8.2 2.2zM101 74.5l3.4 3.5-10.7 10.8c-32.9 33.1-38.6 39.2-41.4 44.9-5.6 11.6-3.2 23.8 7 35.1l4.2 4.6L60 171c-12.6-8.5-18.8-20.2-17.8-33.4 1-12.3 2.7-14.7 29.7-41.9C85.4 82.1 96.7 71 97 71c.3 0 2.1 1.6 4 3.5zm21.3 21.3l12.7 12.7-13 13-13 13-13-13-13-13 12.7-12.7c7-7.1 13-12.8 13.3-12.8.3 0 6.3 5.7 13.3 12.8zm-18.9 42.6c19.6 19.6 25.6 24.9 30.3 27.2 11.1 5.5 23 3.3 34.3-6.3l4.4-3.8-1.9 3.4c-2.4 4.1-9.7 10.6-14.6 13.2-8.8 4.4-23.2 4.3-32.4-.3-2.3-1.2-14.3-12.3-28.5-26.4L70.5 121l3.7-3.5c2.1-1.9 4-3.5 4.3-3.5.2 0 11.5 11 24.9 24.4zm106.6-9.1c5.5 34.1-15.1 67.4-48.5 78.4-7.1 2.3-9.6 2.6-21.5 2.6s-14.4-.3-21.5-2.6c-13.7-4.5-19.4-8.6-39.1-28C59.1 159.8 56 155.3 56 146.2c0-5.6 2.7-12.1 7.4-17.7l2.5-3 24.3 24.1c13.4 13.3 25.7 25 27.3 26.2 8.6 5.8 23.7 7.8 34.6 4.6 14-4.2 24.9-15.7 28.9-30.4 1-3.5 3.3-6.6 11-14.7 5.5-5.6 10.9-12 12.2-14.2 2.2-3.9 2.3-3.9 3.4-1.8.7 1.2 1.7 5.7 2.4 10z"/></svg><svg version="1.0" width="22.667" height="12" viewBox="0 0 17 9" id="menu" x="289.333" y="112" xmlns="http://www.w3.org/2000/svg"/><svg version="1.0" width="24" height="24" viewBox="0 0 18 18" id="notice" x="289.333" y="88" xmlns="http://www.w3.org/2000/svg"/><svg width="14" height="15" viewBox="0 0 14 15" id="phone" x="289.333" y="124" xmlns="http://www.w3.org/2000/svg"><path d="M2.865.009c.887-.168 1.468.829 1.91 1.518a3.064 3.064 0 01.747 2.324 2.2 2.2 0 01-.9 1.041 2.506 2.506 0 00-.954.983 2.479 2.479 0 00.506 1.877 10.753 10.753 0 002.3 2.59 2.316 2.316 0 001.73.746c.951-.193 1.2-1.363 2.239-1.52a2.808 2.808 0 012.214 1.043c.53.463 1.4 1.056 1.34 1.849a1.608 1.608 0 01-.72 1.012 8.768 8.768 0 01-.92.8 4.786 4.786 0 01-2.81.716 5.959 5.959 0 01-2.686-.8A13.944 13.944 0 013.045 11 13.136 13.136 0 01.359 6.683a5.482 5.482 0 01.806-5.392A8.158 8.158 0 011.94.605a2.065 2.065 0 01.925-.596z" fill-rule="evenodd"/></svg><svg version="1.0" width="33.333" height="33.333" viewBox="0 0 25 25" id="play" x="289.333" xmlns="http://www.w3.org/2000/svg"><path d="M3.4 3.4c-5 5-5 13.2 0 18.2 3.1 3.1 4 3.4 9.1 3.4s6-.3 9.1-3.4c3.1-3.1 3.4-4 3.4-9.1C25 4.2 20.8 0 12.5 0c-5.1 0-6 .3-9.1 3.4z"/></svg><svg version="1.0" width="20" height="32" viewBox="0 0 15 24" id="smartphone" x="289.333" y="33.333" xmlns="http://www.w3.org/2000/svg"/></svg>